{
    "asset" : {
        "generator" : "Khronos glTF Blender I/O v1.5.9",
        "version" : "2.0"
    },
    "scene" : 0,
    "scenes" : [
        {
            "name" : "Scene",
            "nodes" : [
                0
            ]
        }
    ],
    "nodes" : [
        {
            "mesh" : 0,
            "name" : "Assets",
            "translation" : [
                3.183044672012329,
                0.4544863700866699,
                -0.44733190536499023
            ]
        }
    ],
    "materials" : [
        {
            "doubleSided" : true,
            "emissiveFactor" : [
                1,
                1,
                1
            ],
            "emissiveTexture" : {
                "index" : 0,
                "texCoord" : 0
            },
            "name" : "Scifi_Panels_14",
            "normalTexture" : {
                "index" : 1,
                "texCoord" : 0
            },
            "pbrMetallicRoughness" : {
                "baseColorTexture" : {
                    "index" : 2,
                    "texCoord" : 0
                },
                "metallicRoughnessTexture" : {
                    "index" : 3,
                    "texCoord" : 0
                }
            }
        }
    ],
    "meshes" : [
        {
            "name" : "Sphere",
            "primitives" : [
                {
                    "attributes" : {
                        "POSITION" : 0,
                        "NORMAL" : 1,
                        "TEXCOORD_0" : 2
                    },
                    "indices" : 3,
                    "material" : 0
                }
            ]
        }
    ],
    "textures" : [
        {
            "sampler" : 0,
            "source" : 0
        },
        {
            "sampler" : 0,
            "source" : 1
        },
        {
            "sampler" : 0,
            "source" : 2
        },
        {
            "sampler" : 0,
            "source" : 3
        }
    ],
    "images" : [
        {
            "mimeType" : "image/jpeg",
            "name" : "Scifi_Panels_14_emissive",
            "uri" : "textures/Scifi_Panels_14_emissive.jpg"
        },
        {
            "mimeType" : "image/jpeg",
            "name" : "Scifi_Panels_14_normal",
            "uri" : "textures/Scifi_Panels_14_normal.jpg"
        },
        {
            "mimeType" : "image/jpeg",
            "name" : "Scifi_Panels_14_basecolor",
            "uri" : "textures/Scifi_Panels_14_basecolor.jpg"
        },
        {
            "mimeType" : "image/png",
            "name" : "Scifi_Panels_14_metallic-Scifi_Panels_14_roughness",
            "uri" : "textures/Scifi_Panels_14_metallic-Scifi_Panels_14_roughness.png"
        }
    ],
    "accessors" : [
        {
            "bufferView" : 0,
            "componentType" : 5126,
            "count" : 1710,
            "max" : [
                1.000000238418579,
                1,
                1.0813299417495728
            ],
            "min" : [
                -8.150753021240234,
                -1.0000003576278687,
                -1
            ],
            "type" : "VEC3"
        },
        {
            "bufferView" : 1,
            "componentType" : 5126,
            "count" : 1710,
            "type" : "VEC3"
        },
        {
            "bufferView" : 2,
            "componentType" : 5126,
            "count" : 1710,
            "type" : "VEC2"
        },
        {
            "bufferView" : 3,
            "componentType" : 5123,
            "count" : 8916,
            "type" : "SCALAR"
        }
    ],
    "bufferViews" : [
        {
            "buffer" : 0,
            "byteLength" : 20520,
            "byteOffset" : 0
        },
        {
            "buffer" : 0,
            "byteLength" : 20520,
            "byteOffset" : 20520
        },
        {
            "buffer" : 0,
            "byteLength" : 13680,
            "byteOffset" : 41040
        },
        {
            "buffer" : 0,
            "byteLength" : 17832,
            "byteOffset" : 54720
        }
    ],
    "samplers" : [
        {
            "magFilter" : 9729,
            "minFilter" : 9987
        }
    ],
    "buffers" : [
        {
            "byteLength" : 72552,
            "uri" : "test.bin"
        }
    ]
}
